<svg version="1" xmlns="http://www.w3.org/2000/svg" width="1024" height="1024" viewBox="0 0 768.000000 768.000000"><path d="M90 24.9C83.1 27 77.9 31.4 74.4 38c-1.8 3.4-1.9 13.7-1.9 346v342.5l2.2 4c2.5 4.7 6.4 8.5 11.3 11.1 3.4 1.8 12.6 1.9 298 1.9h294.5l4-2.2c4.7-2.5 8.5-6.4 11.1-11.3 1.8-3.4 1.9-13.7 1.9-346V41.5l-2.2-4c-2.5-4.7-6.4-8.5-11.3-11.1-3.4-1.8-12.7-1.9-296.5-2.1-161.2-.1-294.1.2-295.5.6zm249 296.3l.5 54.6 45.9-54.9 46-54.9h30.4c26.4 0 30.3.2 29.8 1.5-.3.8-21 25.6-46.1 55-25.1 29.5-45.5 54-45.3 54.4.2.4 21.8 30.7 48.1 67.3 26.2 36.7 47.7 66.9 47.7 67.2 0 .3-13.8.6-30.7.6l-30.8-.1-36-49.9c-19.8-27.5-36.3-49.8-36.6-49.7-.3.1-5.6 6.1-11.8 13.4L339 438.9V512h-51V266l25.3.2 25.2.3.5 54.7z"/></svg>